<?xml version="1.0" encoding="UTF-8" standalone="no"?>
<!-- Created with Inkscape (http://www.inkscape.org/) -->

<svg
   width="210mm"
   height="297mm"
   viewBox="0 0 210 297"
   version="1.1"
   id="svg1"
   inkscape:version="1.3-dev (unknown)"
   sodipodi:docname="cover.svg"
   inkscape:export-filename="cover.png"
   inkscape:export-xdpi="120.95238"
   inkscape:export-ydpi="120.95238"
   xml:space="preserve"
   xmlns:inkscape="http://www.inkscape.org/namespaces/inkscape"
   xmlns:sodipodi="http://sodipodi.sourceforge.net/DTD/sodipodi-0.dtd"
   xmlns:xlink="http://www.w3.org/1999/xlink"
   xmlns="http://www.w3.org/2000/svg"
   xmlns:svg="http://www.w3.org/2000/svg"><sodipodi:namedview
     id="namedview1"
     pagecolor="#000000"
     bordercolor="#ffffff"
     borderopacity="1"
     inkscape:showpageshadow="0"
     inkscape:pageopacity="0"
     inkscape:pagecheckerboard="false"
     inkscape:deskcolor="#505050"
     inkscape:document-units="mm"
     showgrid="false"
     inkscape:zoom="0.59947591"
     inkscape:cx="578.83894"
     inkscape:cy="366.15316"
     inkscape:window-width="1920"
     inkscape:window-height="1042"
     inkscape:window-x="0"
     inkscape:window-y="38"
     inkscape:window-maximized="1"
     inkscape:current-layer="layer1"
     inkscape:export-bgcolor="#000000ff" /><defs
     id="defs1"><linearGradient
       inkscape:collect="always"
       id="linearGradient29"><stop
         style="stop-color:#ffffff;stop-opacity:1;"
         offset="0"
         id="stop28" /><stop
         style="stop-color:#ffffff;stop-opacity:0.65802503;"
         offset="0.5"
         id="stop30" /><stop
         style="stop-color:#ffffff;stop-opacity:0;"
         offset="1"
         id="stop29" /></linearGradient><linearGradient
       inkscape:collect="always"
       id="linearGradient20"><stop
         style="stop-color:#ffe4c5;stop-opacity:1;"
         offset="0.2212408"
         id="stop19" /><stop
         style="stop-color:#eabf5e;stop-opacity:0.40696439;"
         offset="0.3808074"
         id="stop21" /><stop
         style="stop-color:#e8b42f;stop-opacity:0.09361273;"
         offset="0.6904037"
         id="stop22" /><stop
         style="stop-color:#e7aa00;stop-opacity:0;"
         offset="1"
         id="stop20" /></linearGradient><linearGradient
       inkscape:collect="always"
       id="linearGradient9"><stop
         style="stop-color:#ffffff;stop-opacity:1;"
         offset="0"
         id="stop8" /><stop
         style="stop-color:#ffcb31;stop-opacity:0.37733975;"
         offset="0.5"
         id="stop10" /><stop
         style="stop-color:#ffc641;stop-opacity:0.16619089;"
         offset="0.75"
         id="stop11" /><stop
         style="stop-color:#ffc251;stop-opacity:0;"
         offset="1"
         id="stop9" /></linearGradient><linearGradient
       inkscape:collect="always"
       id="linearGradient6"><stop
         style="stop-color:#ffffff;stop-opacity:1;"
         offset="0"
         id="stop5" /><stop
         style="stop-color:#ffffff;stop-opacity:0;"
         offset="1"
         id="stop6" /></linearGradient><linearGradient
       inkscape:collect="always"
       id="linearGradient124"><stop
         style="stop-color:#ffffff;stop-opacity:1;"
         offset="0"
         id="stop123" /><stop
         style="stop-color:#f6cf00;stop-opacity:0;"
         offset="1"
         id="stop124" /></linearGradient><linearGradient
       inkscape:collect="always"
       id="linearGradient27"><stop
         style="stop-color:#700043;stop-opacity:1;"
         offset="0"
         id="stop26" /><stop
         style="stop-color:#000000;stop-opacity:1;"
         offset="1"
         id="stop27" /></linearGradient><radialGradient
       inkscape:collect="always"
       xlink:href="#linearGradient27"
       id="radialGradient27"
       cx="111.78228"
       cy="103.73195"
       fx="111.78228"
       fy="103.73195"
       r="116.52444"
       gradientTransform="matrix(1,0,0,0.94456813,-7.6226685,5.7500559)"
       gradientUnits="userSpaceOnUse" /><filter
       style="color-interpolation-filters:sRGB;"
       inkscape:label="Roughen"
       id="filter27"
       x="0"
       y="0"
       width="1"
       height="1"><feTurbulence
         type="fractalNoise"
         numOctaves="5"
         seed="66"
         baseFrequency="0.05 0.05"
         result="turbulence"
         id="feTurbulence27" /><feDisplacementMap
         in="SourceGraphic"
         in2="turbulence"
         scale="28.8965"
         yChannelSelector="G"
         xChannelSelector="R"
         id="feDisplacementMap27" /></filter><clipPath
       clipPathUnits="userSpaceOnUse"
       id="clipPath14"><path
         style="font-variation-settings:normal;opacity:1;vector-effect:none;fill:#9f6744;fill-opacity:1;stroke:none;stroke-width:0.499996;stroke-linecap:butt;stroke-linejoin:miter;stroke-miterlimit:4;stroke-dasharray:none;stroke-dashoffset:0;stroke-opacity:1;-inkscape-stroke:none;paint-order:stroke fill markers;stop-color:#000000;stop-opacity:1"
         d="m 319.15375,76.770159 -18.94747,75.759331 c 0,0 -4.58592,11.99257 8.82988,17.20333 13.41586,5.21078 25.50057,4.74882 25.50057,4.74882 0,0 9.07497,-4.3207 2.52103,-19.90716 -6.55394,-15.58646 14.0942,-78.55019 14.0942,-78.55019 z"
         id="path14"
         sodipodi:nodetypes="ccscscc" /></clipPath><radialGradient
       inkscape:collect="always"
       xlink:href="#linearGradient124"
       id="radialGradient124-8"
       cx="321.73422"
       cy="101.92098"
       fx="321.73422"
       fy="101.92098"
       r="26.038589"
       gradientTransform="matrix(2.0288662,0,0,1.9220183,-331.02146,-95.573048)"
       gradientUnits="userSpaceOnUse" /><linearGradient
       inkscape:collect="always"
       xlink:href="#linearGradient6"
       id="linearGradient7"
       x1="107.60442"
       y1="135.26231"
       x2="107.60443"
       y2="138.7937"
       gradientUnits="userSpaceOnUse"
       gradientTransform="translate(-2.6044305,-0.52916667)" /><radialGradient
       inkscape:collect="always"
       xlink:href="#linearGradient9"
       id="radialGradient9"
       cx="105.04244"
       cy="112.3751"
       fx="105.04244"
       fy="128.13676"
       r="79.764915"
       gradientTransform="matrix(1,0,0,0.57307555,0,47.975677)"
       gradientUnits="userSpaceOnUse" /><filter
       inkscape:collect="always"
       style="color-interpolation-filters:sRGB;"
       id="filter9"
       x="-0.064426331"
       y="-0.11242205"
       width="1.1288527"
       height="1.2248441"
       inkscape:label="Roughen"><feGaussianBlur
         inkscape:collect="always"
         stdDeviation="4.2824672"
         id="feGaussianBlur9"
         result="fbSourceGraphic" /><feColorMatrix
         result="fbSourceGraphicAlpha"
         in="fbSourceGraphic"
         values="0 0 0 -1 0 0 0 0 -1 0 0 0 0 -1 0 0 0 0 1 0"
         id="feColorMatrix11" /><feTurbulence
         id="feTurbulence11"
         type="fractalNoise"
         numOctaves="5"
         seed="66"
         baseFrequency="0.2 0.2"
         result="turbulence"
         in="fbSourceGraphic" /><feDisplacementMap
         id="feDisplacementMap11"
         in="fbSourceGraphic"
         in2="turbulence"
         scale="7.32772"
         yChannelSelector="G"
         xChannelSelector="R" /></filter><filter
       inkscape:collect="always"
       style="color-interpolation-filters:sRGB"
       id="filter11"
       x="-0.074445124"
       y="-0.18254582"
       width="1.1488902"
       height="1.3650916"><feGaussianBlur
         inkscape:collect="always"
         stdDeviation="2.7464311"
         id="feGaussianBlur11" /></filter><radialGradient
       inkscape:collect="always"
       xlink:href="#linearGradient20"
       id="radialGradient20"
       cx="100.94926"
       cy="183.24014"
       fx="103.04036"
       fy="192.24397"
       r="155.32946"
       gradientTransform="matrix(0.84976623,0.0039883,-0.00339308,0.72294558,16.422592,-10.012554)"
       gradientUnits="userSpaceOnUse" /><filter
       inkscape:collect="always"
       style="color-interpolation-filters:sRGB"
       id="filter22"
       x="-0.012010501"
       y="-0.023536901"
       width="1.024021"
       height="1.0470738"><feGaussianBlur
         inkscape:collect="always"
         stdDeviation="1.5546539"
         id="feGaussianBlur22" /></filter><filter
       inkscape:collect="always"
       style="color-interpolation-filters:sRGB"
       id="filter23"
       x="-0.037254026"
       y="-0.073006475"
       width="1.0745081"
       height="1.1460129"><feGaussianBlur
         inkscape:collect="always"
         stdDeviation="4.8222063"
         id="feGaussianBlur23" /></filter><filter
       inkscape:collect="always"
       style="color-interpolation-filters:sRGB"
       id="filter24"
       x="-0.0328774"
       y="-0.0806182"
       width="1.0657548"
       height="1.1612364"><feGaussianBlur
         inkscape:collect="always"
         stdDeviation="1.2129138"
         id="feGaussianBlur24" /></filter><filter
       inkscape:collect="always"
       style="color-interpolation-filters:sRGB"
       id="filter25"
       x="-0.0035249807"
       y="-0.13460669"
       width="1.00705"
       height="1.2692134"><feGaussianBlur
         inkscape:collect="always"
         stdDeviation="0.24167453"
         id="feGaussianBlur25" /></filter><filter
       inkscape:collect="always"
       style="color-interpolation-filters:sRGB"
       id="filter26"
       x="-0.07635147"
       y="-0.18722034"
       width="1.1527029"
       height="1.3744407"><feGaussianBlur
         inkscape:collect="always"
         stdDeviation="2.81676"
         id="feGaussianBlur26" /></filter><mask
       maskUnits="userSpaceOnUse"
       id="mask30"><rect
         style="fill:url(#linearGradient31);fill-opacity:1;stroke-width:0.499996;paint-order:stroke fill markers;stop-color:#000000"
         id="rect30"
         width="221.74345"
         height="142.9653"
         x="-2.6345706"
         y="-2.0285676" /></mask><linearGradient
       inkscape:collect="always"
       xlink:href="#linearGradient29"
       id="linearGradient31"
       gradientUnits="userSpaceOnUse"
       x1="108.23717"
       y1="38.692738"
       x2="108.23717"
       y2="136.37463" /><filter
       inkscape:collect="always"
       style="color-interpolation-filters:sRGB"
       id="filter78"
       x="-0.089192843"
       y="-0.062589844"
       width="1.1783857"
       height="1.1251797"><feGaussianBlur
         inkscape:collect="always"
         stdDeviation="0.40566224"
         id="feGaussianBlur78" /></filter><filter
       inkscape:collect="always"
       style="color-interpolation-filters:sRGB"
       id="filter79"
       x="-0.089192843"
       y="-0.062589844"
       width="1.1783857"
       height="1.1251797"><feGaussianBlur
         inkscape:collect="always"
         stdDeviation="0.40566224"
         id="feGaussianBlur79" /></filter><filter
       inkscape:collect="always"
       style="color-interpolation-filters:sRGB"
       id="filter80"
       x="-0.016750279"
       y="-0.0080612311"
       width="1.0335006"
       height="1.0161225"><feGaussianBlur
         inkscape:collect="always"
         stdDeviation="0.82575548"
         id="feGaussianBlur80" /></filter><filter
       inkscape:collect="always"
       style="color-interpolation-filters:sRGB"
       id="filter81"
       x="-0.10372132"
       y="-0.075465951"
       width="1.2074426"
       height="1.1509319"><feGaussianBlur
         inkscape:collect="always"
         stdDeviation="1.2378387"
         id="feGaussianBlur81" /></filter><filter
       inkscape:collect="always"
       style="color-interpolation-filters:sRGB"
       id="filter82"
       x="-0.040483239"
       y="-0.032946853"
       width="1.0809665"
       height="1.0658937"><feGaussianBlur
         inkscape:collect="always"
         stdDeviation="0.314882"
         id="feGaussianBlur82" /></filter><filter
       inkscape:collect="always"
       style="color-interpolation-filters:sRGB"
       id="filter83"
       x="-0.01469983"
       y="-0.027667691"
       width="1.0293997"
       height="1.0553354"><feGaussianBlur
         inkscape:collect="always"
         stdDeviation="0.23909309"
         id="feGaussianBlur83" /></filter><filter
       inkscape:collect="always"
       style="color-interpolation-filters:sRGB"
       id="filter85"
       x="-0.27768487"
       y="-0.40761016"
       width="1.5553697"
       height="1.8152203"><feGaussianBlur
         inkscape:collect="always"
         stdDeviation="0.62305082"
         id="feGaussianBlur85" /></filter><filter
       inkscape:collect="always"
       style="color-interpolation-filters:sRGB"
       id="filter86"
       x="-0.39513749"
       y="-0.58001738"
       width="1.790275"
       height="2.1600348"><feGaussianBlur
         inkscape:collect="always"
         stdDeviation="0.88658317"
         id="feGaussianBlur86" /></filter><filter
       inkscape:collect="always"
       style="color-interpolation-filters:sRGB"
       id="filter87"
       x="-0.21270308"
       y="-0.3122242"
       width="1.4254062"
       height="1.6244484"><feGaussianBlur
         inkscape:collect="always"
         stdDeviation="0.47724899"
         id="feGaussianBlur87" /></filter><filter
       inkscape:collect="always"
       style="color-interpolation-filters:sRGB"
       id="filter88"
       x="-0.11623874"
       y="-0.17062539"
       width="1.2324775"
       height="1.3412508"><feGaussianBlur
         inkscape:collect="always"
         stdDeviation="0.26080873"
         id="feGaussianBlur88" /></filter><filter
       inkscape:collect="always"
       style="color-interpolation-filters:sRGB"
       id="filter89"
       x="-0.049463154"
       y="-0.072606346"
       width="1.0989263"
       height="1.1452127"><feGaussianBlur
         inkscape:collect="always"
         stdDeviation="0.11098213"
         id="feGaussianBlur89" /></filter><filter
       inkscape:collect="always"
       style="color-interpolation-filters:sRGB"
       id="filter90"
       x="-0.014038154"
       y="-0.02060643"
       width="1.0280763"
       height="1.0412129"><feGaussianBlur
         inkscape:collect="always"
         stdDeviation="0.031497875"
         id="feGaussianBlur90" /></filter><filter
       inkscape:collect="always"
       style="color-interpolation-filters:sRGB"
       id="filter91"
       x="-0.10574343"
       y="-0.28166417"
       width="1.2114869"
       height="1.5633283"><feGaussianBlur
         inkscape:collect="always"
         stdDeviation="3.9010888"
         id="feGaussianBlur91" /></filter><filter
       inkscape:collect="always"
       style="color-interpolation-filters:sRGB"
       id="filter99"
       x="-0.034743115"
       y="-0.034481947"
       width="1.0694862"
       height="1.0689639"><feGaussianBlur
         inkscape:collect="always"
         stdDeviation="1.1801198"
         id="feGaussianBlur99" /></filter></defs><g
     inkscape:label="Layer 1"
     inkscape:groupmode="layer"
     id="layer1"><image
       width="386.25705"
       height="386.25705"
       preserveAspectRatio="none"
       style="stroke-width:1.34675;image-rendering:optimizeQuality;opacity:0.46467136"
       xlink:href="../../../../../res/tex/starfield.png"
       id="image1"
       x="-42.048965"
       y="-86.161819"
       mask="url(#mask30)" /><rect
       style="font-variation-settings:normal;display:inline;opacity:1;mix-blend-mode:screen;fill:url(#radialGradient27);fill-opacity:1;stroke:none;stroke-width:0.188271;stroke-linecap:butt;stroke-linejoin:round;stroke-miterlimit:4;stroke-dasharray:none;stroke-dashoffset:0;stroke-opacity:1;paint-order:stroke fill markers;filter:url(#filter27);stop-color:#000000;stop-opacity:1"
       id="rect26"
       width="233.04887"
       height="220.13054"
       x="-12.364824"
       y="-6.333322"
       transform="matrix(1.4053326,0,0,1.4053326,-41.409151,-11.191253)"
       inkscape:label="bg"
       sodipodi:insensitive="true" /><g
       id="g128" /><ellipse
       style="mix-blend-mode:normal;fill:url(#radialGradient9);fill-opacity:1;stroke-width:0.338985;paint-order:stroke fill markers;filter:url(#filter9);stop-color:#000000"
       id="path8"
       cx="105.04244"
       cy="112.3751"
       rx="79.764915"
       ry="45.711323"
       transform="matrix(1.5676504,0,0,1.3878027,-59.627383,-37.885133)" /><path
       style="fill:#ffffff;fill-opacity:1;stroke-width:0.499999;paint-order:stroke fill markers;stop-color:#000000;filter:url(#filter11)"
       d="M 104.99979,99.737065 A 45.2104,45.2104 0 0 0 60.742029,135.84494 c 16.0276,-0.45785 33.384895,-0.89337 44.257761,-0.97152 10.8786,0.0782 28.24853,0.51392 44.28309,0.97203 A 45.2104,45.2104 0 0 0 104.99979,99.737065 Z"
       id="path11" /><path
       style="fill:#fff0db;fill-opacity:1;stroke-width:0.499999;paint-order:stroke fill markers;stop-color:#000000;filter:url(#filter26)"
       d="M 104.99979,99.737065 A 45.2104,45.2104 0 0 0 60.742029,135.84494 c 16.0276,-0.45785 33.384895,-0.89337 44.257761,-0.97152 10.8786,0.0782 28.24853,0.51392 44.28309,0.97203 A 45.2104,45.2104 0 0 0 104.99979,99.737065 Z"
       id="path25" /><path
       style="fill:#ffffff;fill-opacity:1;stroke-width:0.499999;paint-order:stroke fill markers;stop-color:#000000;filter:url(#filter24)"
       d="M 104.99979,99.737065 A 45.2104,45.2104 0 0 0 60.742029,135.84494 c 16.0276,-0.45785 33.384895,-0.89337 44.257761,-0.97152 10.8786,0.0782 28.24853,0.51392 44.28309,0.97203 A 45.2104,45.2104 0 0 0 104.99979,99.737065 Z"
       id="path7" /><path
       id="path19"
       style="fill:url(#radialGradient20);fill-opacity:1;stroke-width:0.499999;paint-order:stroke fill markers;stop-color:#000000;filter:url(#filter22)"
       d="m 142.74719,120.94401 100.60518,-53.893953 13.89965,56.163233 -108.3971,12.29138 c 0,0 1.66767,-5.15796 -6.10773,-14.56066 z m -1.07517,-4.74237 79.61174,-107.5404441 10.55061,22.1122991 z m -7.49053,-5.52026 52.36556,-114.7518292 11.46612,1.6168925 -60.75619,115.4162867 z m -12.99489,-8.06417 37.23339,-115.031474 25.65359,1.334699 -52.51876,119.420485 c 0,0 -5.14172,-5.62955 -10.36822,-5.72371 z m -34.199224,1.2407 -28.684796,-122.2658 70.44253,-4.611676 -12.17199,124.114626 c 0,0 -13.38342,-5.36584 -29.585744,2.76285 z m -11.545011,7.3941 -89.0809,-94.969756 92.766744,91.956626 z M 61.050013,135.16565 -53.406899,80.835671 -18.738424,29.44696 70.670541,116.03084 c 0,0 -9.077653,11.80152 -9.620528,19.13481 z"
       sodipodi:nodetypes="ccccccccccccccccccccccccccccccccc" /><path
       id="path22"
       style="fill:url(#radialGradient20);fill-opacity:1;stroke-width:0.499999;paint-order:stroke fill markers;stop-color:#000000;filter:url(#filter23)"
       d="m 142.74719,120.94401 100.60518,-53.893953 13.89965,56.163233 -108.3971,12.29138 c 0,0 1.66767,-5.15796 -6.10773,-14.56066 z m -1.07517,-4.74237 79.61174,-107.5404441 10.55061,22.1122991 z m -7.49053,-5.52026 52.36556,-114.7518292 11.46612,1.6168925 -60.75619,115.4162867 z m -12.99489,-8.06417 37.23339,-115.031474 25.65359,1.334699 -52.51876,119.420485 c 0,0 -5.14172,-5.62955 -10.36822,-5.72371 z m -34.199224,1.2407 -28.684796,-122.2658 70.44253,-4.611676 -12.17199,124.114626 c 0,0 -13.38342,-5.36584 -29.585744,2.76285 z m -11.545011,7.3941 -89.0809,-94.969756 92.766744,91.956626 z M 61.050013,135.16565 -53.406899,80.835671 -18.738424,29.44696 70.670541,116.03084 c 0,0 -9.077653,11.80152 -9.620528,19.13481 z"
       sodipodi:nodetypes="ccccccccccccccccccccccccccccccccc" /><path
       id="path5"
       style="fill:url(#linearGradient7);fill-opacity:1;stroke-width:0.499999;paint-order:stroke fill markers;stop-color:#000000;filter:url(#filter25)"
       d="m 105,138.65335 c -24.489676,-0.17604 -82.27263,-2.1545 -82.27263,-2.1545 0,0 57.782954,-1.97846 82.27263,-2.15449 24.48967,0.17603 82.27263,2.15449 82.27263,2.15449 0,0 -57.78296,1.97846 -82.27263,2.1545 z"
       sodipodi:nodetypes="ccccc" /><g
       id="g78"
       transform="matrix(1.1357834,0,0,1.1357834,-324.34463,-43.832847)"
       style="mix-blend-mode:normal;stroke-width:0.88045"><path
         id="use32"
         style="fill:#000000;fill-opacity:1;stroke-width:0.440224;paint-order:stroke fill markers;stop-color:#000000;filter:url(#filter80)"
         d="m 372.77571,237.33527 -3.10507,43.33563 c -0.73498,9.16823 -2.61565,11.62855 -4.50117,14.06051 -3.50304,0.75983 -7.03861,1.64612 -9.07547,-3.29287 -0.30371,-2.53059 -0.49856,-5.1901 4.75073,-14.29726 0.27737,-19.17605 2.34002,-38.44086 0.27326,-57.50037 -3.895,-12.54852 -4.10277,-25.09705 -3.72615,-37.64557 1.12203,-14.08748 3.84243,-29.66531 6.1138,-42.26244 2.27137,-12.59713 -0.59274,-21.16068 -7.93353,-30.63106 -8.5556,-8.59867 -22.54437,-19.106413 -25.66673,-25.795979 -2.11314,-7.304959 -4.28434,-14.353586 -5.86598,-24.005411 l -4.08286,-2.324245 c -1.16756,-1.694547 -0.83346,-3.263262 0.10774,-4.781103 1.29882,-2.520145 3.67794,-2.854715 6.31237,-2.672767 l 0.57355,4.114039 0.44562,-2.109904 c 0.85234,-0.208444 1.43573,0.265708 1.53527,1.967934 l 0.79425,3.489578 c 1.59014,8.17684 4.44307,15.241326 6.35228,22.619582 7.38082,9.519664 15.76774,14.608156 23.70377,21.682506 l 3.57868,-2.301793 10.97217,-2.163195 c 0.52286,-1.947359 0.94537,-4.042815 1.06538,-6.584757 0.048,-1.752935 -0.79424,-3.505871 -1.59784,-5.258806 h 9.13781 c -0.8036,1.752935 -1.64584,3.505871 -1.59784,5.258806 0.12001,2.541942 0.54252,4.637398 1.06538,6.584757 l 10.97217,2.163195 3.57868,2.301793 c 7.93603,-7.07435 16.32295,-12.162842 23.70377,-21.682506 1.83721,-7.458533 4.49854,-14.912166 6.35228,-22.619582 l 0.79425,-3.489578 c 0.0995,-1.702226 0.68293,-2.176378 1.53527,-1.967934 l 0.44562,2.109904 0.57355,-4.114039 c 2.63443,-0.181948 5.01355,0.152622 6.31237,2.672767 0.9412,1.517841 1.2753,3.086556 0.10774,4.781103 l -4.08286,2.324245 c -1.58164,9.651825 -3.75284,16.700452 -5.86598,24.005411 -3.12236,6.689566 -17.11113,17.197309 -25.66673,25.795979 -7.34079,9.47038 -10.2049,18.03393 -7.93353,30.63106 2.27137,12.59713 4.99177,28.17496 6.1138,42.26244 0.37662,12.54852 0.16885,25.09705 -3.72615,37.64557 -2.06676,19.05951 -0.004,38.32432 0.27326,57.50037 5.24929,9.10716 5.05444,11.76667 4.75073,14.29726 -2.03686,4.93899 -5.57243,4.0527 -9.07547,3.29287 -1.88552,-2.43196 -3.76619,-4.89228 -4.50117,-14.06051 l -3.10507,-43.33563 -5.59298,-52.37044 z"
         sodipodi:nodetypes="ccccccczcccccccccccccccccccccccccccccccczccccccccc" /><path
         style="opacity:1;fill:#000000;fill-opacity:1;stroke-width:0.440224;paint-order:stroke fill markers;stop-color:#000000;filter:url(#filter79)"
         d="m 362.14465,111.37286 c 0,0 -4.09549,6.01494 -2.79067,11.11871 1.30484,5.10377 9.62964,5.37585 10.65893,2.9752"
         id="path32" /><path
         style="opacity:1;fill:#000000;fill-opacity:1;stroke-width:0.440224;paint-order:stroke fill markers;stop-color:#000000;filter:url(#filter78)"
         d="m 394.99057,111.37286 c 0,0 4.09549,6.01494 2.79067,11.11871 -1.30484,5.10377 -9.62964,5.37585 -10.65893,2.9752"
         id="path33" /><path
         id="path35"
         style="opacity:1;fill:#000000;fill-opacity:1;stroke-width:0.440224;paint-order:stroke fill markers;stop-color:#000000;filter:url(#filter82)"
         d="m 383.36786,90.477061 c 1.58911,-1.131539 4.27955,-9.878301 4.27955,-11.722717 0,-1.844413 -2.06306,-6.113412 -3.12108,-7.280023 -1.05801,-1.166612 -5.52963,-1.602753 -5.52963,-1.602753 h -1.36598 c 0,0 -4.47162,0.436141 -5.52963,1.602753 -1.05802,1.166611 -3.12108,5.43561 -3.12108,7.280023 0,1.844416 2.69044,10.591178 4.27955,11.722717 1.58912,1.131541 4.18428,2.331958 5.05415,2.331958 0.86987,0 3.46503,-1.200417 5.05415,-2.331958 z"
         sodipodi:nodetypes="sssccssszs" /><path
         style="opacity:1;fill:#000000;fill-opacity:1;stroke-width:0.440224;paint-order:stroke fill markers;stop-color:#000000;filter:url(#filter81)"
         d="m 374.52185,71.404115 c 0,0 -2.6135,3.684717 -3.65334,8.34226 -1.03987,4.657542 4.44754,8.888962 2.37419,14.616898 -2.07333,5.727937 0.37052,11.004477 0.37052,11.004477 0,0 -4.45289,-5.17366 -3.07467,-9.845706 1.37821,-4.672044 0.47014,-5.799833 0.47014,-5.799833 0,0 -0.74274,2.345902 -0.55066,2.70532 0.19209,0.359418 -0.30432,1.489408 -0.30432,1.489408 0,0 -1.5245,-2.745211 -1.07418,-3.731278 0.45035,-0.986068 -0.0575,-4.534525 -0.0575,-4.534525 0,0 -1.97061,2.777212 -1.06794,5.62804 0.90268,2.850827 0.38291,3.707325 0.38291,3.707325 0,0 -4.5784,-4.079102 -3.70306,-7.750513 0.87535,-3.671411 -0.0198,-5.223719 -1.33588,-6.192716 -1.31598,-0.968999 -0.96337,-5.628232 1.3629,-8.18143 2.32624,-2.553195 4.6201,-5.446379 12.00274,-6.725041 7.38264,-1.27866 10.54259,6.925281 10.54259,6.925281 0,0 1.45198,1.714891 3.29028,4.398285 1.83832,2.683393 -1.06294,4.15045 -0.31766,7.381509 0.74528,3.23106 0.63447,3.209142 -0.9361,8.113382 -1.57059,4.90424 1.93686,8.920062 1.93686,8.920062 0,0 -2.90001,-1.16206 -3.28846,-3.97264 0,0 0.38211,1.24859 -0.0821,2.53211 -0.46421,1.28351 0.13585,3.10777 0.13585,3.10777 0,0 -2.47404,-1.70924 -1.76854,-4.808682 0.7055,-3.09944 -2.62349,-4.609437 -2.62349,-4.609437 0,0 -2.17715,-3.841468 -1.37881,-6.31385 0,0 3.07261,-8.694602 0.6623,-12.567225 -2.41031,-3.872623 -7.3811,-5.173992 -8.31457,-3.839251 z"
         id="path36" /><path
         id="path37"
         style="opacity:1;fill:#000000;fill-opacity:1;stroke-width:0.440224;paint-order:stroke fill markers;stop-color:#000000"
         d="m 330.909,59.009318 -7.37371,2.318722 0.54364,2.662886 7.53959,-1.953369 -0.23771,-1.013892 1.33635,-0.276469 -0.25425,-1.118278 -1.3255,0.355018 z" /><path
         id="path38"
         style="opacity:1;fill:#000000;fill-opacity:1;stroke-width:0.440224;paint-order:stroke fill markers;stop-color:#000000"
         d="m 425.82415,59.009318 7.37371,2.318722 -0.54364,2.662886 -7.53959,-1.953369 0.23771,-1.013892 -1.33635,-0.276469 0.25425,-1.118278 1.3255,0.355018 z" /><g
         id="g58"
         style="stroke-width:0.88045;filter:url(#filter83)"><path
           id="path39"
           style="opacity:1;fill:#000000;fill-opacity:1;stroke-width:0.440224;paint-order:stroke fill markers;stop-color:#000000"
           d="m 334.32295,58.077071 -3.03237,0.857829 0.64854,2.810681 3.11764,-0.844393 z m -0.42271,0.712101 0.53433,1.737362 -2.03192,0.591178 -0.38499,-1.704288 z" /><g
           id="g41"
           inkscape:transform-center-x="-2.2739173"
           inkscape:transform-center-y="-1.0641398"
           transform="rotate(-1.2602782,334.26293,59.649705)"
           style="stroke-width:0.88045"><path
             style="opacity:1;fill:#000000;fill-opacity:1;stroke-width:0.440224;paint-order:stroke fill markers;stop-color:#000000"
             d="m 333.84717,59.452697 2.83062,-0.838864 0.25627,0.807125 -2.90716,0.706321 z"
             id="path40"
             inkscape:transform-center-x="-1.0296212"
             inkscape:transform-center-y="-0.3006283" /><path
             id="path41"
             style="opacity:1;fill:#000000;fill-opacity:1;stroke-width:0.440224;paint-order:stroke fill markers;stop-color:#000000"
             d="m 338.49832,56.818008 -3.03237,0.857829 0.64854,2.810681 3.11764,-0.844393 z m -0.42271,0.712101 0.53433,1.737362 -2.03192,0.591178 -0.38499,-1.704288 z"
             inkscape:transform-center-x="-2.9880462"
             inkscape:transform-center-y="-1.0189213" /></g><g
           id="g43"
           inkscape:transform-center-x="-2.2709154"
           inkscape:transform-center-y="-1.1166487"
           transform="rotate(-2.2593403,304.99099,-45.046003)"
           style="stroke-width:0.88045"><path
             style="opacity:1;fill:#000000;fill-opacity:1;stroke-width:0.440224;paint-order:stroke fill markers;stop-color:#000000"
             d="m 333.84717,59.452697 2.83062,-0.838864 0.25627,0.807125 -2.90716,0.706321 z"
             id="path42"
             inkscape:transform-center-x="-1.0296212"
             inkscape:transform-center-y="-0.3006283" /><path
             id="path43"
             style="opacity:1;fill:#000000;fill-opacity:1;stroke-width:0.440224;paint-order:stroke fill markers;stop-color:#000000"
             d="m 338.49832,56.818008 -3.03237,0.857829 0.64854,2.810681 3.11764,-0.844393 z m -0.42271,0.712101 0.53433,1.737362 -2.03192,0.591178 -0.38499,-1.704288 z"
             inkscape:transform-center-x="-2.9880462"
             inkscape:transform-center-y="-1.0189213" /></g><g
           id="g45"
           inkscape:transform-center-x="-2.264661"
           inkscape:transform-center-y="-1.2001335"
           transform="rotate(-3.8613735,299.88873,-63.820582)"
           style="stroke-width:0.88045"><path
             style="opacity:1;fill:#000000;fill-opacity:1;stroke-width:0.440224;paint-order:stroke fill markers;stop-color:#000000"
             d="m 333.84717,59.452697 2.83062,-0.838864 0.25627,0.807125 -2.90716,0.706321 z"
             id="path44"
             inkscape:transform-center-x="-1.0296212"
             inkscape:transform-center-y="-0.3006283" /><path
             id="path45"
             style="opacity:1;fill:#000000;fill-opacity:1;stroke-width:0.440224;paint-order:stroke fill markers;stop-color:#000000"
             d="m 338.49832,56.818008 -3.03237,0.857829 0.64854,2.810681 3.11764,-0.844393 z m -0.42271,0.712101 0.53433,1.737362 -2.03192,0.591178 -0.38499,-1.704288 z"
             inkscape:transform-center-x="-2.9880462"
             inkscape:transform-center-y="-1.0189213" /></g><g
           id="g47"
           inkscape:transform-center-x="-2.2487032"
           inkscape:transform-center-y="-1.3499044"
           transform="rotate(-6.7826209,304.97141,-47.240231)"
           style="stroke-width:0.88045;filter:url(#filter90)"><path
             style="opacity:1;fill:#000000;fill-opacity:1;stroke-width:0.440224;paint-order:stroke fill markers;stop-color:#000000"
             d="m 333.84717,59.452697 2.83062,-0.838864 0.25627,0.807125 -2.90716,0.706321 z"
             id="path46"
             inkscape:transform-center-x="-1.0296212"
             inkscape:transform-center-y="-0.3006283" /><path
             id="path47"
             style="opacity:1;fill:#000000;fill-opacity:1;stroke-width:0.440224;paint-order:stroke fill markers;stop-color:#000000"
             d="m 338.49832,56.818008 -3.03237,0.857829 0.64854,2.810681 3.11764,-0.844393 z m -0.42271,0.712101 0.53433,1.737362 -2.03192,0.591178 -0.38499,-1.704288 z"
             inkscape:transform-center-x="-2.9880462"
             inkscape:transform-center-y="-1.0189213" /></g><g
           id="g49"
           inkscape:transform-center-x="-2.2325851"
           inkscape:transform-center-y="-1.4618952"
           transform="rotate(-9.0126214,305.45575,-47.219979)"
           style="stroke-width:0.88045;filter:url(#filter89)"><path
             style="opacity:1;fill:#000000;fill-opacity:1;stroke-width:0.440224;paint-order:stroke fill markers;stop-color:#000000"
             d="m 333.84717,59.452697 2.83062,-0.838864 0.25627,0.807125 -2.90716,0.706321 z"
             id="path48"
             inkscape:transform-center-x="-1.0296212"
             inkscape:transform-center-y="-0.3006283" /><path
             id="path49"
             style="opacity:1;fill:#000000;fill-opacity:1;stroke-width:0.440224;paint-order:stroke fill markers;stop-color:#000000"
             d="m 338.49832,56.818008 -3.03237,0.857829 0.64854,2.810681 3.11764,-0.844393 z m -0.42271,0.712101 0.53433,1.737362 -2.03192,0.591178 -0.38499,-1.704288 z"
             inkscape:transform-center-x="-2.9880462"
             inkscape:transform-center-y="-1.0189213" /></g><g
           id="g51"
           inkscape:transform-center-x="-2.2095487"
           inkscape:transform-center-y="-1.5554165"
           transform="rotate(-11.610206,306.71406,-44.164923)"
           style="stroke-width:0.88045;filter:url(#filter88)"><path
             style="opacity:1;fill:#000000;fill-opacity:1;stroke-width:0.440224;paint-order:stroke fill markers;stop-color:#000000"
             d="m 333.84717,59.452697 2.83062,-0.838864 0.25627,0.807125 -2.90716,0.706321 z"
             id="path50"
             inkscape:transform-center-x="-1.0296212"
             inkscape:transform-center-y="-0.3006283" /><path
             id="path51"
             style="opacity:1;fill:#000000;fill-opacity:1;stroke-width:0.440224;paint-order:stroke fill markers;stop-color:#000000"
             d="m 338.49832,56.818008 -3.03237,0.857829 0.64854,2.810681 3.11764,-0.844393 z m -0.42271,0.712101 0.53433,1.737362 -2.03192,0.591178 -0.38499,-1.704288 z"
             inkscape:transform-center-x="-2.9880462"
             inkscape:transform-center-y="-1.0189213" /></g><g
           id="g53"
           inkscape:transform-center-x="-2.1685673"
           inkscape:transform-center-y="-1.664079"
           transform="rotate(-15.338087,310.2845,-35.172669)"
           style="stroke-width:0.88045;filter:url(#filter87)"><path
             style="opacity:1;fill:#000000;fill-opacity:1;stroke-width:0.440224;paint-order:stroke fill markers;stop-color:#000000"
             d="m 333.84717,59.452697 2.83062,-0.838864 0.25627,0.807125 -2.90716,0.706321 z"
             id="path52"
             inkscape:transform-center-x="-1.0296212"
             inkscape:transform-center-y="-0.3006283" /><path
             id="path53"
             style="opacity:1;fill:#000000;fill-opacity:1;stroke-width:0.440224;paint-order:stroke fill markers;stop-color:#000000"
             d="m 338.49832,56.818008 -3.03237,0.857829 0.64854,2.810681 3.11764,-0.844393 z m -0.42271,0.712101 0.53433,1.737362 -2.03192,0.591178 -0.38499,-1.704288 z"
             inkscape:transform-center-x="-2.9880462"
             inkscape:transform-center-y="-1.0189213" /></g><g
           id="g55"
           inkscape:transform-center-x="-2.1233375"
           inkscape:transform-center-y="-1.7567775"
           transform="rotate(-18.727454,312.08379,-30.932372)"
           style="stroke-width:0.88045;filter:url(#filter85)"><path
             style="opacity:1;fill:#000000;fill-opacity:1;stroke-width:0.440224;paint-order:stroke fill markers;stop-color:#000000"
             d="m 333.84717,59.452697 2.83062,-0.838864 0.25627,0.807125 -2.90716,0.706321 z"
             id="path54"
             inkscape:transform-center-x="-1.0296212"
             inkscape:transform-center-y="-0.3006283" /><path
             id="path55"
             style="opacity:1;fill:#000000;fill-opacity:1;stroke-width:0.440224;paint-order:stroke fill markers;stop-color:#000000"
             d="m 338.49832,56.818008 -3.03237,0.857829 0.64854,2.810681 3.11764,-0.844393 z m -0.42271,0.712101 0.53433,1.737362 -2.03192,0.591178 -0.38499,-1.704288 z"
             inkscape:transform-center-x="-2.9880462"
             inkscape:transform-center-y="-1.0189213" /></g><g
           id="g57"
           inkscape:transform-center-x="-2.0591287"
           inkscape:transform-center-y="-1.860071"
           transform="rotate(-22.803162,314.32252,-25.611385)"
           style="stroke-width:0.88045;filter:url(#filter86)"><path
             style="opacity:1;fill:#000000;fill-opacity:1;stroke-width:0.440224;paint-order:stroke fill markers;stop-color:#000000"
             d="m 333.84717,59.452697 2.83062,-0.838864 0.25627,0.807125 -2.90716,0.706321 z"
             id="path56"
             inkscape:transform-center-x="-1.0296212"
             inkscape:transform-center-y="-0.3006283" /><path
             id="path57"
             style="opacity:1;fill:#000000;fill-opacity:1;stroke-width:0.440224;paint-order:stroke fill markers;stop-color:#000000"
             d="m 338.49832,56.818008 -3.03237,0.857829 0.64854,2.810681 3.11764,-0.844393 z m -0.42271,0.712101 0.53433,1.737362 -2.03192,0.591178 -0.38499,-1.704288 z"
             inkscape:transform-center-x="-2.9880462"
             inkscape:transform-center-y="-1.0189213" /></g></g><use
         x="0"
         y="0"
         xlink:href="#g58"
         id="use90"
         transform="matrix(-1,0,0,1,755.86929,0)" /></g><text
       xml:space="preserve"
       style="font-style:normal;font-variant:normal;font-weight:300;font-stretch:normal;font-size:21.2265px;line-height:1.25;font-family:Cormorant;-inkscape-font-specification:'Cormorant, Light';font-variant-ligatures:normal;font-variant-caps:normal;font-variant-numeric:normal;font-variant-east-asian:normal;letter-spacing:15.3961px;word-spacing:0px;fill:#ff8dbf;fill-opacity:1;stroke-width:0.113156"
       x="107.80094"
       y="218.76575"
       id="text1"
       inkscape:label="subtitle"><tspan
         sodipodi:role="line"
         id="tspan1"
         style="font-style:normal;font-variant:normal;font-weight:300;font-stretch:normal;font-size:21.2265px;font-family:Cormorant;-inkscape-font-specification:'Cormorant, Light';font-variant-ligatures:normal;font-variant-caps:normal;font-variant-numeric:normal;font-variant-east-asian:normal;text-align:center;text-anchor:middle;fill:#ff8dbf;fill-opacity:1;stroke-width:0.113156"
         x="115.49899"
         y="218.76575">SPIRALS</tspan></text><text
       xml:space="preserve"
       style="font-style:normal;font-variant:normal;font-weight:300;font-stretch:normal;font-size:34.6478px;line-height:1.25;font-family:Cormorant;-inkscape-font-specification:'Cormorant, Light';font-variant-ligatures:normal;font-variant-caps:normal;font-variant-numeric:normal;font-variant-east-asian:normal;letter-spacing:4.00452px;word-spacing:0px;fill:#ffffff;fill-opacity:1;stroke-width:0.113156"
       x="107.84627"
       y="248.39883"
       id="text3"
       inkscape:label="title"><tspan
         sodipodi:role="line"
         id="tspan3"
         style="font-style:normal;font-variant:normal;font-weight:300;font-stretch:normal;font-size:34.6478px;font-family:Cormorant;-inkscape-font-specification:'Cormorant, Light';font-variant-ligatures:normal;font-variant-caps:normal;font-variant-numeric:normal;font-variant-east-asian:normal;text-align:center;text-anchor:middle;fill:#ffffff;fill-opacity:1;stroke-width:0.113156"
         x="109.84853"
         y="248.39883">DARKEST</tspan></text><text
       xml:space="preserve"
       style="font-style:normal;font-variant:normal;font-weight:300;font-stretch:normal;font-size:29.5807px;line-height:1.25;font-family:Cormorant;-inkscape-font-specification:'Cormorant, Light';font-variant-ligatures:normal;font-variant-caps:normal;font-variant-numeric:normal;font-variant-east-asian:normal;letter-spacing:-2.64583px;word-spacing:0px;fill:#ffffff;fill-opacity:1;stroke-width:0.113156"
       x="107.84122"
       y="271.43863"
       id="text2"
       inkscape:label="title"><tspan
         sodipodi:role="line"
         id="tspan2"
         style="font-style:normal;font-variant:normal;font-weight:300;font-stretch:normal;font-size:29.5807px;font-family:Cormorant;-inkscape-font-specification:'Cormorant, Light';font-variant-ligatures:normal;font-variant-caps:normal;font-variant-numeric:normal;font-variant-east-asian:normal;text-align:center;text-anchor:middle;fill:#ffffff;fill-opacity:1;stroke-width:0.113156"
         x="106.5183"
         y="271.43863">BEFORE  DAWN</tspan></text><text
       xml:space="preserve"
       style="font-style:italic;font-variant:normal;font-weight:300;font-stretch:normal;font-size:9.4018px;line-height:1.25;font-family:Cormorant;-inkscape-font-specification:'Cormorant Light Italic';font-variant-ligatures:normal;font-variant-caps:normal;font-variant-numeric:normal;font-variant-east-asian:normal;text-align:center;letter-spacing:0.79375px;word-spacing:0px;text-anchor:middle;fill:#d200d3;fill-opacity:1;stroke-width:0.113156"
       x="108.62371"
       y="287.35791"
       id="text7"
       inkscape:label="byline"><tspan
         sodipodi:role="line"
         id="tspan7"
         style="font-style:italic;font-variant:normal;font-weight:300;font-stretch:normal;font-size:9.4018px;font-family:Cormorant;-inkscape-font-specification:'Cormorant Light Italic';font-variant-ligatures:normal;font-variant-caps:normal;font-variant-numeric:normal;font-variant-east-asian:normal;text-align:center;text-anchor:middle;fill:#d200d3;fill-opacity:1;stroke-width:0.113156"
         x="109.02058"
         y="287.35791">Lexi Hale</tspan></text><path
       id="path90"
       style="mix-blend-mode:screen;fill:#ffe2cb;fill-opacity:1;stroke-width:0.499999;paint-order:stroke fill markers;filter:url(#filter91);stop-color:#000000"
       d="m 89.248299,102.60511 a 45.2104,45.2104 0 0 0 -28.50627,33.23983 c 8.096398,-0.23129 16.526901,-0.45686 24.294641,-0.63355 1.130335,-7.13985 2.352401,-14.07034 3.482475,-20.33778 0.808062,-4.48156 1.042634,-8.51347 0.729154,-12.2685 z m 32.286921,0.28422 c -0.27898,3.67506 -0.0417,7.61435 0.7462,11.98428 1.13112,6.27319 2.35439,13.21061 3.48558,20.35741 7.55488,0.174 15.68662,0.39075 23.51588,0.61443 a 45.2104,45.2104 0 0 0 -27.74766,-32.95612 z" /><g
       id="g93"><path
         style="opacity:1;fill:#ffffff;fill-opacity:1;stroke-width:0.499999;paint-order:stroke fill markers;stop-color:#000000"
         d="M 325.0777,115.95297 V 18.148756 c 0,0 6.66365,8.337252 6.91965,13.651475 0.25596,5.314222 0,84.846529 0,84.846529 z"
         id="path93" /><path
         id="path91"
         style="opacity:1;fill:#ffe2cb;fill-opacity:1;stroke-width:0.499999;paint-order:stroke fill markers;stop-color:#000000"
         d="m 323.97925,116.03478 c 2.28726,9.11229 2.8204,17.66955 0.17366,25.21973 l -0.17366,0.48425 c 3.41769,3.16316 5.99585,3.24861 9.23031,0 l -0.17364,-0.48425 c -2.64674,-7.55018 -2.11361,-16.10744 0.17364,-25.21973 z"
         sodipodi:nodetypes="ccccccc" /><path
         id="path92"
         style="opacity:1;fill:#ffcb9a;fill-opacity:1;stroke-width:0.499999;paint-order:stroke fill markers;stop-color:#000000"
         d="m 316.98914,115.84522 c 0.45696,0.95872 0.98753,1.84668 2.03749,2.23553 h 9.42013 0.29531 9.42012 c 1.15078,-0.62182 1.5365,-1.44375 2.03749,-2.23553 h -11.60551 z"
         sodipodi:nodetypes="cccccccc" /></g><g
       id="g99"
       style="filter:url(#filter99)"><g
         id="g96"
         transform="matrix(0.62708635,0.568058,-0.568058,0.62708635,-116.29978,-110.80358)"
         style="fill:#000000;fill-opacity:1;stroke-width:1.18186"><path
           style="opacity:1;fill:#000000;fill-opacity:1;stroke-width:0.590928;paint-order:stroke fill markers;stop-color:#000000"
           d="M 325.0777,115.95297 V 18.148756 c 0,0 6.66365,8.337252 6.91965,13.651475 0.25596,5.314222 0,84.846529 0,84.846529 z"
           id="path94" /><path
           id="path95"
           style="opacity:1;fill:#000000;fill-opacity:1;stroke-width:0.590928;paint-order:stroke fill markers;stop-color:#000000"
           d="m 323.97925,116.03478 c 2.28726,9.11229 2.8204,17.66955 0.17366,25.21973 l -0.17366,0.48425 c 3.41769,3.16316 5.99585,3.24861 9.23031,0 l -0.17364,-0.48425 c -2.64674,-7.55018 -2.11361,-16.10744 0.17364,-25.21973 z"
           sodipodi:nodetypes="ccccccc" /><path
           id="path96"
           style="opacity:1;fill:#000000;fill-opacity:1;stroke-width:0.590928;paint-order:stroke fill markers;stop-color:#000000"
           d="m 316.98914,115.84522 c 0.45696,0.95872 0.98753,1.84668 2.03749,2.23553 h 9.42013 0.29531 9.42012 c 1.15078,-0.62182 1.5365,-1.44375 2.03749,-2.23553 h -11.60551 z"
           sodipodi:nodetypes="cccccccc" /></g><path
         style="opacity:1;fill:#000000;fill-opacity:1;stroke-width:0.499999;paint-order:stroke fill markers;stop-color:#000000"
         d="m -0.73567346,143.04118 c 4.32805166,2.07767 10.99468946,6.81542 13.31401346,6.71715 1.612699,-1.15413 3.842523,-0.73441 5.338012,-0.98367 2.11519,0.38207 4.071664,2.18907 6.062459,3.68794 0,0 0.603971,1.53192 -1.501909,2.47989 -2.105879,0.94796 -1.87588,0.21748 -1.87588,0.21748 0,0 0.84754,0.91204 -0.214,2.32626 -1.061541,1.41423 -2.697492,0.54017 -2.697492,0.54017 0,0 1.275604,1.10291 0.286589,2.53295 -0.989016,1.43003 -2.959621,0.20604 -2.959621,0.20604 0,0 0.949166,1.64696 -0.309033,2.41662 -1.258199,0.76965 -5.7204281,0.17476 -7.1412481,-4.08266 -1.4208199,-4.25742 -1.7784927,-4.25742 -1.7784927,-4.25742 l -10.066086,-5.49469"
         id="path99"
         sodipodi:nodetypes="ccccscscscsscc" /></g><g
       id="g103"
       style="filter:url(#filter99)"
       transform="matrix(-1,0,0,1,206.92123,0)"><g
         id="g102"
         transform="matrix(0.62708635,0.568058,-0.568058,0.62708635,-116.29978,-110.80358)"
         style="fill:#000000;fill-opacity:1;stroke-width:1.18186"><path
           style="opacity:1;fill:#000000;fill-opacity:1;stroke-width:0.590928;paint-order:stroke fill markers;stop-color:#000000"
           d="M 325.0777,115.95297 V 18.148756 c 0,0 6.66365,8.337252 6.91965,13.651475 0.25596,5.314222 0,84.846529 0,84.846529 z"
           id="path100" /><path
           id="path101"
           style="opacity:1;fill:#000000;fill-opacity:1;stroke-width:0.590928;paint-order:stroke fill markers;stop-color:#000000"
           d="m 323.97925,116.03478 c 2.28726,9.11229 2.8204,17.66955 0.17366,25.21973 l -0.17366,0.48425 c 3.41769,3.16316 5.99585,3.24861 9.23031,0 l -0.17364,-0.48425 c -2.64674,-7.55018 -2.11361,-16.10744 0.17364,-25.21973 z"
           sodipodi:nodetypes="ccccccc" /><path
           id="path102"
           style="opacity:1;fill:#000000;fill-opacity:1;stroke-width:0.590928;paint-order:stroke fill markers;stop-color:#000000"
           d="m 316.98914,115.84522 c 0.45696,0.95872 0.98753,1.84668 2.03749,2.23553 h 9.42013 0.29531 9.42012 c 1.15078,-0.62182 1.5365,-1.44375 2.03749,-2.23553 h -11.60551 z"
           sodipodi:nodetypes="cccccccc" /></g><path
         style="opacity:1;fill:#000000;fill-opacity:1;stroke-width:0.499999;paint-order:stroke fill markers;stop-color:#000000"
         d="m -0.73567346,143.04118 c 4.32805166,2.07767 10.99468946,6.81542 13.31401346,6.71715 1.612699,-1.15413 3.842523,-0.73441 5.338012,-0.98367 2.11519,0.38207 4.071664,2.18907 6.062459,3.68794 0,0 0.603971,1.53192 -1.501909,2.47989 -2.105879,0.94796 -1.87588,0.21748 -1.87588,0.21748 0,0 0.84754,0.91204 -0.214,2.32626 -1.061541,1.41423 -2.697492,0.54017 -2.697492,0.54017 0,0 1.275604,1.10291 0.286589,2.53295 -0.989016,1.43003 -2.959621,0.20604 -2.959621,0.20604 0,0 0.949166,1.64696 -0.309033,2.41662 -1.258199,0.76965 -5.7204281,0.17476 -7.1412481,-4.08266 -1.4208199,-4.25742 -1.7784927,-4.25742 -1.7784927,-4.25742 l -10.066086,-5.49469"
         id="path103"
         sodipodi:nodetypes="ccccscscscsscc" /></g></g></svg>
