<?xml version="1.0" encoding="UTF-8" standalone="no"?>
<!-- Created with Inkscape (http://www.inkscape.org/) -->

<svg
   width="210mm"
   height="297mm"
   viewBox="0 0 210 297"
   version="1.1"
   id="svg1"
   inkscape:version="1.3-dev (unknown)"
   sodipodi:docname="cover.svg"
   inkscape:export-filename="cover.png"
   inkscape:export-xdpi="120.95238"
   inkscape:export-ydpi="120.95238"
   xml:space="preserve"
   xmlns:inkscape="http://www.inkscape.org/namespaces/inkscape"
   xmlns:sodipodi="http://sodipodi.sourceforge.net/DTD/sodipodi-0.dtd"
   xmlns:xlink="http://www.w3.org/1999/xlink"
   xmlns="http://www.w3.org/2000/svg"
   xmlns:svg="http://www.w3.org/2000/svg"><sodipodi:namedview
     id="namedview1"
     pagecolor="#000000"
     bordercolor="#ffffff"
     borderopacity="1"
     inkscape:showpageshadow="0"
     inkscape:pageopacity="0"
     inkscape:pagecheckerboard="false"
     inkscape:deskcolor="#505050"
     inkscape:document-units="mm"
     showgrid="false"
     inkscape:zoom="0.61803026"
     inkscape:cx="432.82671"
     inkscape:cy="607.57543"
     inkscape:window-width="1920"
     inkscape:window-height="1042"
     inkscape:window-x="0"
     inkscape:window-y="38"
     inkscape:window-maximized="1"
     inkscape:current-layer="layer1"
     inkscape:export-bgcolor="#000000ff" /><defs
     id="defs1"><linearGradient
       inkscape:collect="always"
       id="linearGradient58"><stop
         style="stop-color:#000000;stop-opacity:1;"
         offset="0.86626786"
         id="stop57" /><stop
         style="stop-color:#212756;stop-opacity:1;"
         offset="1"
         id="stop58" /></linearGradient><linearGradient
       inkscape:collect="always"
       id="linearGradient34"><stop
         style="stop-color:#ffffff;stop-opacity:1;"
         offset="0"
         id="stop33" /><stop
         style="stop-color:#ffd2eb;stop-opacity:0.38503951;"
         offset="0.5"
         id="stop35" /><stop
         style="stop-color:#ff4cc0;stop-opacity:0;"
         offset="1"
         id="stop34" /></linearGradient><linearGradient
       inkscape:collect="always"
       id="linearGradient29"><stop
         style="stop-color:#ffffff;stop-opacity:1;"
         offset="0"
         id="stop28" /><stop
         style="stop-color:#add0ff;stop-opacity:0;"
         offset="1"
         id="stop29" /></linearGradient><linearGradient
       inkscape:collect="always"
       id="linearGradient27"><stop
         style="stop-color:#6d004f;stop-opacity:1;"
         offset="0"
         id="stop26" /><stop
         style="stop-color:#000000;stop-opacity:1;"
         offset="1"
         id="stop27" /></linearGradient><radialGradient
       inkscape:collect="always"
       xlink:href="#linearGradient27"
       id="radialGradient27"
       cx="111.92962"
       cy="96.834534"
       fx="111.92962"
       fy="96.834534"
       r="116.52444"
       gradientTransform="matrix(1,0,0,0.94456813,-7.6226685,5.7500559)"
       gradientUnits="userSpaceOnUse" /><filter
       style="color-interpolation-filters:sRGB;"
       inkscape:label="Roughen"
       id="filter27"
       x="0"
       y="0"
       width="1"
       height="1"><feTurbulence
         type="fractalNoise"
         numOctaves="5"
         seed="66"
         baseFrequency="0.05 0.05"
         result="turbulence"
         id="feTurbulence27" /><feDisplacementMap
         in="SourceGraphic"
         in2="turbulence"
         scale="28.8965"
         yChannelSelector="G"
         xChannelSelector="R"
         id="feDisplacementMap27" /></filter><radialGradient
       inkscape:collect="always"
       xlink:href="#linearGradient29"
       id="radialGradient29"
       cx="357.91913"
       cy="96.492104"
       fx="357.91913"
       fy="96.492104"
       r="23.455095"
       gradientUnits="userSpaceOnUse"
       gradientTransform="translate(34.660842,10.690686)" /><radialGradient
       inkscape:collect="always"
       xlink:href="#linearGradient29"
       id="radialGradient30"
       gradientUnits="userSpaceOnUse"
       gradientTransform="matrix(1.6808762,0,0,0.85131866,-209.03776,25.037261)"
       cx="357.91913"
       cy="96.492104"
       fx="357.91913"
       fy="96.492104"
       r="23.455095" /><radialGradient
       inkscape:collect="always"
       xlink:href="#linearGradient29"
       id="radialGradient31"
       gradientUnits="userSpaceOnUse"
       gradientTransform="matrix(6.7644767,0,0,0.57922043,-2028.5555,51.292593)"
       cx="357.91913"
       cy="96.492104"
       fx="357.91913"
       fy="96.492104"
       r="23.455095" /><radialGradient
       inkscape:collect="always"
       xlink:href="#linearGradient29"
       id="radialGradient32"
       gradientUnits="userSpaceOnUse"
       gradientTransform="matrix(9.4302014,0,0,0.13577098,-2982.6693,94.081964)"
       cx="357.91913"
       cy="96.492104"
       fx="357.91913"
       fy="96.492104"
       r="23.455095" /><filter
       inkscape:collect="always"
       style="color-interpolation-filters:sRGB"
       id="filter32"
       x="-0.0094159629"
       y="-0.088794423"
       width="1.0188319"
       height="1.1775888"><feGaussianBlur
         inkscape:collect="always"
         stdDeviation="1.735568"
         id="feGaussianBlur32" /></filter><radialGradient
       inkscape:collect="always"
       xlink:href="#linearGradient34"
       id="radialGradient34"
       cx="-215.5563"
       cy="116.15067"
       fx="-215.5563"
       fy="116.15067"
       r="46.490616"
       gradientUnits="userSpaceOnUse"
       gradientTransform="matrix(1.4118686,0,0,1.4118686,88.780858,-47.838807)" /><filter
       inkscape:collect="always"
       style="color-interpolation-filters:sRGB"
       id="filter35"
       x="-0.28983789"
       y="-0.13152152"
       width="1.5761"
       height="1.2627664"><feGaussianBlur
         inkscape:collect="always"
         stdDeviation="6.3906819"
         id="feGaussianBlur35" /></filter><filter
       style="color-interpolation-filters:sRGB;"
       inkscape:label="Roughen"
       id="filter57"
       x="-0.0074125627"
       y="-0.0034057588"
       width="1.0148251"
       height="1.0068115"><feTurbulence
         type="fractalNoise"
         numOctaves="5"
         seed="66"
         baseFrequency="0.2 0.2"
         result="turbulence"
         id="feTurbulence57" /><feDisplacementMap
         in="SourceGraphic"
         in2="turbulence"
         scale="1.28444"
         yChannelSelector="G"
         xChannelSelector="R"
         id="feDisplacementMap57" /><feGaussianBlur
         stdDeviation="0.16691186"
         id="feGaussianBlur57" /></filter><radialGradient
       inkscape:collect="always"
       xlink:href="#linearGradient58"
       id="radialGradient58"
       cx="-9.0974312"
       cy="259.5473"
       fx="-9.0974312"
       fy="259.5473"
       r="98.287529"
       gradientUnits="userSpaceOnUse"
       gradientTransform="matrix(1.1760324,0,0,1.1760324,-0.37667401,-44.025789)" /><filter
       inkscape:collect="always"
       style="color-interpolation-filters:sRGB"
       id="filter58"
       x="-0.0065150804"
       y="-0.0065150804"
       width="1.0130302"
       height="1.0130302"><feGaussianBlur
         inkscape:collect="always"
         stdDeviation="0.53362595"
         id="feGaussianBlur58" /></filter><filter
       inkscape:collect="always"
       style="color-interpolation-filters:sRGB"
       id="filter145"
       x="-0.0089031365"
       y="-0.0089031365"
       width="1.0178063"
       height="1.0178063"><feGaussianBlur
         inkscape:collect="always"
         stdDeviation="0.52592732"
         id="feGaussianBlur145" /></filter></defs><g
     inkscape:label="Layer 1"
     inkscape:groupmode="layer"
     id="layer1"><image
       width="338.34528"
       height="338.34528"
       preserveAspectRatio="none"
       style="stroke-width:1.53746;image-rendering:optimizeQuality;opacity:0.76765951"
       xlink:href="../../../../../res/tex/starfield.png"
       id="image1"
       x="-42.726875"
       y="-35.514507" /><rect
       style="font-variation-settings:normal;opacity:1;mix-blend-mode:screen;fill:url(#radialGradient27);fill-opacity:1;stroke:none;stroke-width:0.188271;stroke-linecap:butt;stroke-linejoin:round;stroke-miterlimit:4;stroke-dasharray:none;stroke-dashoffset:0;stroke-opacity:1;paint-order:stroke fill markers;filter:url(#filter27);stop-color:#000000;stop-opacity:1"
       id="rect26"
       width="233.04887"
       height="220.13054"
       x="-12.364824"
       y="-6.333322"
       transform="matrix(1.4053326,0,0,1.4053326,-41.409151,-11.191253)" /><g
       id="g35"
       style="mix-blend-mode:screen;stroke-width:10.4417;filter:url(#filter145)"
       transform="matrix(0.09576975,0,0,0.09576975,-125.91894,157.66538)"><circle
         style="opacity:0.541919;fill:url(#radialGradient34);fill-opacity:1;stroke:none;stroke-width:2.76271px;stroke-linecap:round;paint-order:stroke fill markers;stop-color:#000000"
         id="circle25"
         cx="-215.55632"
         cy="116.15068"
         r="67.533165" /><path
         id="path24"
         style="opacity:0.291927;fill:#ffffff;fill-opacity:1;stroke:none;stroke-width:2.76271px;stroke-linecap:round;paint-order:stroke fill markers;stop-color:#000000"
         d="m -144.66977,116.15082 -70.88702,-4.57579 -70.88611,4.57579 70.88611,4.57551 z" /><circle
         style="opacity:1;fill:#ffffff;fill-opacity:1;stroke:none;stroke-width:2.76271px;stroke-linecap:round;paint-order:stroke fill markers;stop-color:#000000"
         id="path25"
         cx="-215.55634"
         cy="116.15068"
         r="7.087913" /><use
         x="0"
         y="0"
         xlink:href="#path24"
         id="use35"
         transform="rotate(-90,-215.55633,116.15068)"
         style="stroke-width:10.4417" /></g><g
       id="g32"
       transform="matrix(0.45088859,0,0,0.45088859,-72.553519,-105.47838)"
       style="opacity:1;stroke-width:2.21784;filter:url(#filter32)"><circle
         style="opacity:0.86759;mix-blend-mode:screen;fill:url(#radialGradient29);fill-opacity:1;stroke-width:0.586803;stroke-linejoin:round;paint-order:stroke fill markers;stop-color:#000000"
         id="path26"
         cx="392.57996"
         cy="107.1828"
         r="23.455095" /><ellipse
         style="opacity:0.489289;mix-blend-mode:screen;fill:url(#radialGradient30);fill-opacity:1;stroke-width:0.586803;stroke-linejoin:round;paint-order:stroke fill markers;stop-color:#000000"
         id="circle29"
         cx="392.57996"
         cy="107.18279"
         rx="39.42511"
         ry="19.96776" /><ellipse
         style="opacity:0.498332;mix-blend-mode:screen;fill:url(#radialGradient31);fill-opacity:1;stroke-width:0.586806;stroke-linejoin:round;paint-order:stroke fill markers;stop-color:#000000"
         id="ellipse30"
         cx="392.57996"
         cy="107.18279"
         rx="158.66144"
         ry="13.58567" /><ellipse
         style="mix-blend-mode:screen;fill:url(#radialGradient32);fill-opacity:1;stroke-width:0.586806;stroke-linejoin:round;paint-order:stroke fill markers;stop-color:#000000"
         id="ellipse31"
         cx="392.57993"
         cy="107.18279"
         rx="221.18626"
         ry="3.1845214" /></g><circle
       style="opacity:1;fill:url(#radialGradient58);fill-opacity:1;stroke:none;stroke-width:0.264583px;stroke-linecap:round;paint-order:stroke fill markers;stop-color:#000000;filter:url(#filter58)"
       id="path57"
       cx="2.139797"
       cy="250.10049"
       r="98.287529" /><text
       xml:space="preserve"
       style="font-style:normal;font-variant:normal;font-weight:300;font-stretch:normal;font-size:21.2265px;line-height:1.25;font-family:Cormorant;-inkscape-font-specification:'Cormorant, Light';font-variant-ligatures:normal;font-variant-caps:normal;font-variant-numeric:normal;font-variant-east-asian:normal;letter-spacing:15.875px;word-spacing:0px;fill:#ff8ad0;fill-opacity:1;stroke-width:0.113156"
       x="107.80094"
       y="244.20671"
       id="text1"><tspan
         sodipodi:role="line"
         id="tspan1"
         style="font-style:normal;font-variant:normal;font-weight:300;font-stretch:normal;font-size:21.2265px;font-family:Cormorant;-inkscape-font-specification:'Cormorant, Light';font-variant-ligatures:normal;font-variant-caps:normal;font-variant-numeric:normal;font-variant-east-asian:normal;text-align:center;text-anchor:middle;fill:#ff8ad0;fill-opacity:1;stroke-width:0.113156"
         x="114.01865"
         y="244.20671">SPIRALS</tspan></text><text
       xml:space="preserve"
       style="font-size:10.5833px;line-height:1.25;font-family:'Alegreya Sans';-inkscape-font-specification:'Alegreya Sans';letter-spacing:0px;word-spacing:0px;stroke-width:0.113156"
       x="112.6446"
       y="55.276577"
       id="text2"><tspan
         sodipodi:role="line"
         id="tspan2"
         style="stroke-width:0.113156"
         x="112.6446"
         y="55.276577" /></text><text
       xml:space="preserve"
       style="font-style:normal;font-variant:normal;font-weight:300;font-stretch:normal;font-size:26.259px;line-height:1.25;font-family:Cormorant;-inkscape-font-specification:'Cormorant, Light';font-variant-ligatures:normal;font-variant-caps:normal;font-variant-numeric:normal;font-variant-east-asian:normal;letter-spacing:-2.26352px;word-spacing:0px;fill:#ffffff;fill-opacity:1;stroke-width:0.113156"
       x="107.30602"
       y="269.63403"
       id="text3"><tspan
         sodipodi:role="line"
         id="tspan3"
         style="font-style:normal;font-variant:normal;font-weight:300;font-stretch:normal;font-size:26.259px;font-family:Cormorant;-inkscape-font-specification:'Cormorant, Light';font-variant-ligatures:normal;font-variant-caps:normal;font-variant-numeric:normal;font-variant-east-asian:normal;text-align:center;text-anchor:middle;fill:#ffffff;fill-opacity:1;stroke-width:0.113156"
         x="106.17426"
         y="269.63403">SPARROWHAWK</tspan></text><text
       xml:space="preserve"
       style="font-style:italic;font-variant:normal;font-weight:300;font-stretch:normal;font-size:9.4018px;line-height:1.25;font-family:Cormorant;-inkscape-font-specification:'Cormorant Light Italic';font-variant-ligatures:normal;font-variant-caps:normal;font-variant-numeric:normal;font-variant-east-asian:normal;letter-spacing:0.79375px;word-spacing:0px;fill:#d200d3;fill-opacity:1;stroke-width:0.113156;text-anchor:middle;text-align:center"
       x="108.62371"
       y="287.35791"
       id="text7"><tspan
         sodipodi:role="line"
         id="tspan7"
         style="font-style:italic;font-variant:normal;font-weight:300;font-stretch:normal;font-size:9.4018px;font-family:Cormorant;-inkscape-font-specification:'Cormorant Light Italic';font-variant-ligatures:normal;font-variant-caps:normal;font-variant-numeric:normal;font-variant-east-asian:normal;fill:#d200d3;fill-opacity:1;stroke-width:0.113156;text-anchor:middle;text-align:center"
         x="92.715904"
         y="287.35791">Lexi Hale</tspan></text><g
       id="g254"
       transform="translate(0,-9.5272974)"><g
         id="g13"
         transform="translate(284.73646,-13.972744)"
         style="mix-blend-mode:normal;stroke:none;filter:url(#filter57)"><path
           style="opacity:1;fill:#ffe5f2;fill-opacity:1;stroke:none;stroke-width:0.264583px;stroke-linecap:round;paint-order:stroke fill markers;stop-color:#000000"
           id="path4"
           d="m -208.27563,89.083046 c 8.53962,-1.402689 15.38236,-5.6648 20.70672,-12.160216 8.12915,-5.931739 20.51912,-1.872477 21.8218,8.542541 3.60195,7.47078 1.38768,17.352979 -8.64542,16.665649 -6.96803,4.03886 10.25453,1.09682 10.83239,-4.255352 1.51467,-8.022655 -0.7466,-18.036796 -7.15001,-23.611951 -12.10191,-7.054775 -20.93785,6.30142 -29.5427,10.7992 -2.74473,0.634369 -7.91778,0.102589 -8.02278,4.020129 z" /><path
           style="opacity:1;fill:#ffddef;fill-opacity:1;stroke:none;stroke-width:0.264583px;stroke-linecap:round;paint-order:stroke fill markers;stop-color:#000000"
           id="path5"
           d="m -163.65091,103.66866 c 1.37385,18.83387 -4.35709,37.43522 -11.34222,54.68787 -1.36269,5.99261 -9.85056,13.03852 -8.95208,17.32406 14.09358,-20.15932 20.9236,-45.00182 21.89046,-69.43644 0.40868,-1.5664 -0.1979,-6.395193 -1.59616,-2.57549 z" /><path
           style="opacity:1;fill:#ffb8e0;fill-opacity:1;stroke:none;stroke-width:0.264583px;stroke-linecap:round;paint-order:stroke fill markers;stop-color:#000000"
           id="path6"
           d="m -163.44872,128.66468 c 5.55497,12.13442 5.51907,25.93559 6.10806,39.02781 0.8027,5.44039 -2.54888,17.66377 -0.79382,18.67897 2.10901,-7.54203 1.17113,-15.67884 1.58605,-23.47096 -0.66529,-11.69582 -1.47304,-23.7246 -5.25,-34.85008 -0.45578,-1.58751 -1.93192,-0.8886 -1.65029,0.61426 z" /><path
           style="opacity:1;fill:#ffb8e0;fill-opacity:1;stroke:none;stroke-width:0.264583px;stroke-linecap:round;paint-order:stroke fill markers;stop-color:#000000"
           id="path7"
           d="m -174.96474,161.78128 c 1.88578,9.01412 3.78589,23.28883 9.26038,28.08545 -2.67779,-7.23593 -6.37007,-14.49639 -7.15101,-22.53755 -0.60845,-1.01186 -0.0258,-10.26591 -2.10937,-5.5479 z" /><path
           style="opacity:1;fill:#ffe5f2;fill-opacity:1;stroke:none;stroke-width:0.264583px;stroke-linecap:round;paint-order:stroke fill markers;stop-color:#000000"
           id="path8"
           d="m -210.59026,91.990566 c 6.27897,3.315792 19.30907,7.4965 22.68138,3.566855 -7.73454,2.638502 -17.74328,-5.360931 -22.68138,-3.566855 z" /><path
           style="opacity:1;fill:#ffddef;fill-opacity:1;stroke:none;stroke-width:0.264583px;stroke-linecap:round;paint-order:stroke fill markers;stop-color:#000000"
           id="path9"
           d="m -199.71791,98.586036 c -3.8218,6.954454 -0.65509,15.149154 -0.70614,22.601864 1.8912,13.07797 8.37758,24.85921 11.14061,37.74669 0.92252,4.39191 3.55418,11.59819 2.74776,3.15329 -2.25468,-7.5131 -4.77162,-14.93956 -7.07215,-22.454 -4.90499,-12.58123 -8.38446,-26.13182 -5.98367,-39.681336 z" /><path
           style="opacity:1;fill:#ffddef;fill-opacity:1;stroke:none;stroke-width:0.264583px;stroke-linecap:round;paint-order:stroke fill markers;stop-color:#000000"
           id="path10"
           d="m -181.92049,176.95446 c 1.99025,3.98948 10.46921,11.43978 4.43305,2.87082 -0.69892,-0.64499 -3.80651,-6.67826 -4.43305,-2.87082 z" /><path
           style="opacity:1;fill:#ffb8e0;fill-opacity:1;stroke:none;stroke-width:0.264583px;stroke-linecap:round;paint-order:stroke fill markers;stop-color:#000000"
           id="path11"
           d="m -203.8336,115.66659 c -2.1093,19.62949 -4.68224,39.54882 -3.17502,59.21825 0.34956,-3.51944 -0.87561,14.16335 1.45511,4.91494 -0.43019,-10.06476 -1.27399,-20.53001 -0.52672,-31.02262 0.45055,-11.49115 2.73316,-23.00561 3.33151,-34.35844 l -0.45401,0.15845 z" /><path
           style="opacity:1;fill:#ffb8e0;fill-opacity:1;stroke:none;stroke-width:0.264583px;stroke-linecap:round;paint-order:stroke fill markers;stop-color:#000000"
           id="path12"
           d="m -203.25487,175.53816 c 1.90429,-5.75646 5.22409,-15.1278 3.68734,-19.37655 -0.34469,6.52591 -4.10136,13.19874 -3.68734,19.37655 z" /><path
           style="opacity:1;fill:#ffe5f2;fill-opacity:1;stroke:none;stroke-width:0.264583px;stroke-linecap:round;paint-order:stroke fill markers;stop-color:#000000"
           id="path13"
           d="m -188.13884,82.383234 c -0.8729,0.490463 -1.57562,1.609756 -1.42627,2.630252 0.0176,0.120107 0.0611,0.234944 0.0917,0.352417 0.18509,0.666985 0.59517,1.266288 1.19431,1.625949 0.14438,0.08667 0.30076,0.151556 0.45115,0.227335 0.76951,0.308372 1.71648,0.412337 2.40353,-0.159946 0.14014,-0.116734 0.24202,-0.272923 0.36304,-0.409382 0.27079,-0.621387 0.57389,-1.229672 0.81236,-1.864161 0.0998,-0.265504 0.0733,-1.080061 -0.002,-1.379744 -0.023,-0.09199 -0.066,-0.177803 -0.099,-0.266705 -0.32352,-0.515824 -0.65333,-0.885727 -1.23642,-1.0844 -0.32401,-0.08057 -0.66053,-0.03186 -0.98911,-0.0078 -0.22856,0.01064 -0.45748,0.01299 -0.68622,0.0088 -0.0287,-0.0011 -0.0574,-0.0019 -0.0862,-0.0029 -0.7026,-0.190572 -1.22089,1.72027 -0.51828,1.910839 v 0 c 0.0293,-5.29e-4 0.0586,-0.0011 0.0879,-0.0016 0.24513,-0.0011 0.49046,0.008 0.73543,-0.0047 0.25001,-0.0096 0.50052,-0.02969 0.74752,-0.07001 0.29551,0.02021 0.49113,0.372555 0.56213,0.623351 0.0159,0.207854 0.0327,0.417179 0.0113,0.625533 -0.0555,0.541287 -0.5517,1.605928 0.37579,-0.358807 -0.0828,0.28843 -0.0799,0.442383 -0.30739,0.651031 -0.37575,0.344667 -0.92029,0.250478 -1.34497,0.08344 -0.11071,-0.05899 -0.22709,-0.108389 -0.33214,-0.176966 -0.43077,-0.281226 -0.652,-0.755857 -0.69801,-1.255125 0.009,-0.07049 0.01,-0.142354 0.0258,-0.211479 0.017,-0.07218 0.107,-0.276127 0.0735,-0.209981 -0.20275,0.400105 -0.36984,0.818062 -0.58192,1.213302 -0.0866,0.161343 0.2451,-0.792104 0.23669,-0.528317 0.72076,0.04981 0.85622,-1.910406 0.13546,-1.960214 z" /></g><g
         id="g23"
         transform="translate(284.73646,-13.972744)"
         style="mix-blend-mode:screen;fill:#ffa3d8;fill-opacity:1;filter:url(#filter35)"><path
           style="opacity:1;fill:#ffcee9;fill-opacity:1;stroke:#5695d6;stroke-width:0.264583px;stroke-linecap:round;paint-order:stroke fill markers;stop-color:#000000"
           id="path14"
           d="m -208.27563,89.083046 c 8.53962,-1.402689 15.38236,-5.6648 20.70672,-12.160216 8.12915,-5.931739 20.51912,-1.872477 21.8218,8.542541 3.60195,7.47078 1.38768,17.352979 -8.64542,16.665649 -6.96803,4.03886 10.25453,1.09682 10.83239,-4.255352 1.51467,-8.022655 -0.7466,-18.036796 -7.15001,-23.611951 -12.10191,-7.054775 -20.93785,6.30142 -29.5427,10.7992 -2.74473,0.634369 -7.91778,0.102589 -8.02278,4.020129 z" /><path
           style="opacity:1;fill:#ffa3d8;fill-opacity:1;stroke:#5695d6;stroke-width:0.264583px;stroke-linecap:round;paint-order:stroke fill markers;stop-color:#000000"
           id="path15"
           d="m -163.65091,103.66866 c 1.37385,18.83387 -4.35709,37.43522 -11.34222,54.68787 -1.36269,5.99261 -9.85056,13.03852 -8.95208,17.32406 14.09358,-20.15932 20.9236,-45.00182 21.89046,-69.43644 0.40868,-1.5664 -0.1979,-6.395193 -1.59616,-2.57549 z" /><path
           style="opacity:1;fill:#ff57c4;fill-opacity:1;stroke:#5695d6;stroke-width:0.264583px;stroke-linecap:round;paint-order:stroke fill markers;stop-color:#000000"
           id="path16"
           d="m -163.44872,128.66468 c 5.55497,12.13442 5.51907,25.93559 6.10806,39.02781 0.8027,5.44039 -2.54888,17.66377 -0.79382,18.67897 2.10901,-7.54203 1.17113,-15.67884 1.58605,-23.47096 -0.66529,-11.69582 -1.47304,-23.7246 -5.25,-34.85008 -0.45578,-1.58751 -1.93192,-0.8886 -1.65029,0.61426 z" /><path
           style="opacity:1;fill:#ff57c4;fill-opacity:1;stroke:#5695d6;stroke-width:0.264583px;stroke-linecap:round;paint-order:stroke fill markers;stop-color:#000000"
           id="path17"
           d="m -174.96474,161.78128 c 1.88578,9.01412 3.78589,23.28883 9.26038,28.08545 -2.67779,-7.23593 -6.37007,-14.49639 -7.15101,-22.53755 -0.60845,-1.01186 -0.0258,-10.26591 -2.10937,-5.5479 z" /><path
           style="opacity:1;fill:#ffa3d8;fill-opacity:1;stroke:#5695d6;stroke-width:0.264583px;stroke-linecap:round;paint-order:stroke fill markers;stop-color:#000000"
           id="path18"
           d="m -210.59026,91.990566 c 6.27897,3.315792 19.30907,7.4965 22.68138,3.566855 -7.73454,2.638502 -17.74328,-5.360931 -22.68138,-3.566855 z" /><path
           style="opacity:1;fill:#ffa3d8;fill-opacity:1;stroke:#5695d6;stroke-width:0.264583px;stroke-linecap:round;paint-order:stroke fill markers;stop-color:#000000"
           id="path19"
           d="m -199.71791,98.586036 c -3.8218,6.954454 -0.65509,15.149154 -0.70614,22.601864 1.8912,13.07797 8.37758,24.85921 11.14061,37.74669 0.92252,4.39191 3.55418,11.59819 2.74776,3.15329 -2.25468,-7.5131 -4.77162,-14.93956 -7.07215,-22.454 -4.90499,-12.58123 -8.38446,-26.13182 -5.98367,-39.681336 z" /><path
           style="opacity:1;fill:#ffa3d8;fill-opacity:1;stroke:#5695d6;stroke-width:0.264583px;stroke-linecap:round;paint-order:stroke fill markers;stop-color:#000000"
           id="path20"
           d="m -181.92049,176.95446 c 1.99025,3.98948 10.46921,11.43978 4.43305,2.87082 -0.69892,-0.64499 -3.80651,-6.67826 -4.43305,-2.87082 z" /><path
           style="opacity:1;fill:#ff57c4;fill-opacity:1;stroke:#5695d6;stroke-width:0.264583px;stroke-linecap:round;paint-order:stroke fill markers;stop-color:#000000"
           id="path21"
           d="m -203.8336,115.66659 c -2.1093,19.62949 -4.68224,39.54882 -3.17502,59.21825 0.34956,-3.51944 -0.87561,14.16335 1.45511,4.91494 -0.43019,-10.06476 -1.27399,-20.53001 -0.52672,-31.02262 0.45055,-11.49115 2.73316,-23.00561 3.33151,-34.35844 l -0.45401,0.15845 z" /><path
           style="opacity:1;fill:#ff57c4;fill-opacity:1;stroke:#5695d6;stroke-width:0.264583px;stroke-linecap:round;paint-order:stroke fill markers;stop-color:#000000"
           id="path22"
           d="m -203.25487,175.53816 c 1.90429,-5.75646 5.22409,-15.1278 3.68734,-19.37655 -0.34469,6.52591 -4.10136,13.19874 -3.68734,19.37655 z" /><path
           style="opacity:1;fill:#ffcee9;fill-opacity:1;stroke:#5695d6;stroke-width:0.264583px;stroke-linecap:round;paint-order:stroke fill markers;stop-color:#000000"
           id="path23"
           d="m -188.13884,82.383234 c -0.8729,0.490463 -1.57562,1.609756 -1.42627,2.630252 0.0176,0.120107 0.0611,0.234944 0.0917,0.352417 0.18509,0.666985 0.59517,1.266288 1.19431,1.625949 0.14438,0.08667 0.30076,0.151556 0.45115,0.227335 0.76951,0.308372 1.71648,0.412337 2.40353,-0.159946 0.14014,-0.116734 0.24202,-0.272923 0.36304,-0.409382 0.27079,-0.621387 0.57389,-1.229672 0.81236,-1.864161 0.0998,-0.265504 0.0733,-1.080061 -0.002,-1.379744 -0.023,-0.09199 -0.066,-0.177803 -0.099,-0.266705 -0.32352,-0.515824 -0.65333,-0.885727 -1.23642,-1.0844 -0.32401,-0.08057 -0.66053,-0.03186 -0.98911,-0.0078 -0.22856,0.01064 -0.45748,0.01299 -0.68622,0.0088 -0.0287,-0.0011 -0.0574,-0.0019 -0.0862,-0.0029 -0.7026,-0.190572 -1.22089,1.72027 -0.51828,1.910839 v 0 c 0.0293,-5.29e-4 0.0586,-0.0011 0.0879,-0.0016 0.24513,-0.0011 0.49046,0.008 0.73543,-0.0047 0.25001,-0.0096 0.50052,-0.02969 0.74752,-0.07001 0.29551,0.02021 0.49113,0.372555 0.56213,0.623351 0.0159,0.207854 0.0327,0.417179 0.0113,0.625533 -0.0555,0.541287 -0.5517,1.605928 0.37579,-0.358807 -0.0828,0.28843 -0.0799,0.442383 -0.30739,0.651031 -0.37575,0.344667 -0.92029,0.250478 -1.34497,0.08344 -0.11071,-0.05899 -0.22709,-0.108389 -0.33214,-0.176966 -0.43077,-0.281226 -0.652,-0.755857 -0.69801,-1.255125 0.009,-0.07049 0.01,-0.142354 0.0258,-0.211479 0.017,-0.07218 0.107,-0.276127 0.0735,-0.209981 -0.20275,0.400105 -0.36984,0.818062 -0.58192,1.213302 -0.0866,0.161343 0.2451,-0.792104 0.23669,-0.528317 0.72076,0.04981 0.85622,-1.910406 0.13546,-1.960214 z" /></g><use
         id="use36"
         inkscape:spray-origin="#g35"
         xlink:href="#g35"
         transform="matrix(1.4624894,0,0,1.4624894,324.78387,-187.61)"
         style="stroke-width:0.742109"
         x="0"
         y="0" /><use
         id="use37"
         inkscape:spray-origin="#g35"
         xlink:href="#g35"
         transform="matrix(1.4866199,0,0,1.4866199,327.97056,-161.82709)"
         style="stroke-width:0.730063"
         x="0"
         y="0" /><use
         id="use38"
         inkscape:spray-origin="#g35"
         xlink:href="#g35"
         transform="matrix(1.3741834,0,0,1.3741834,279.91443,-64.986699)"
         style="stroke-width:0.789797"
         x="0"
         y="0" /><use
         id="use39"
         inkscape:spray-origin="#g35"
         xlink:href="#g35"
         transform="matrix(1.2391041,0,0,1.2391041,263.23587,-108.24742)"
         style="stroke-width:0.875896"
         x="0"
         y="0" /><use
         id="use40"
         inkscape:spray-origin="#g35"
         xlink:href="#g35"
         transform="matrix(1.3776104,0,0,1.3776104,279.40568,-158.478)"
         style="stroke-width:0.787832"
         x="0"
         y="0" /><use
         id="use41"
         inkscape:spray-origin="#g35"
         xlink:href="#g35"
         transform="matrix(0.67813917,0,0,0.67813917,184.25418,29.614113)"
         style="stroke-width:1.60045"
         x="0"
         y="0" /><use
         id="use42"
         inkscape:spray-origin="#g35"
         xlink:href="#g35"
         transform="matrix(1.0135719,0,0,1.0135719,270.77584,-81.913637)"
         style="stroke-width:1.07079"
         x="0"
         y="0" /><use
         id="use43"
         inkscape:spray-origin="#g35"
         xlink:href="#g35"
         transform="matrix(1.2909601,0,0,1.2909601,287.43453,-147.11626)"
         style="stroke-width:0.840712"
         x="0"
         y="0" /><use
         id="use44"
         inkscape:spray-origin="#g35"
         xlink:href="#g35"
         transform="matrix(0.96397373,0,0,0.96397373,239.75722,-12.037471)"
         style="stroke-width:1.12589"
         x="0"
         y="0" /><use
         id="use45"
         inkscape:spray-origin="#g35"
         xlink:href="#g35"
         transform="matrix(1.3776104,0,0,1.3776104,320.46586,-56.951161)"
         style="stroke-width:0.787832"
         x="0"
         y="0" /><use
         id="use46"
         inkscape:spray-origin="#g35"
         xlink:href="#g35"
         transform="matrix(0.96397373,0,0,0.96397373,268.03903,9.0043171)"
         style="stroke-width:1.12589"
         x="0"
         y="0" /><use
         id="use47"
         inkscape:spray-origin="#g35"
         xlink:href="#g35"
         transform="matrix(1.2391041,0,0,1.2391041,302.49232,-96.080477)"
         style="stroke-width:0.875896"
         x="0"
         y="0" /></g></g></svg>
